<?xml version="1.0" encoding="UTF-8"?>
<!DOCTYPE svg PUBLIC "-//W3C//DTD SVG 1.1//EN" "http://www.w3.org/Graphics/SVG/1.1/DTD/svg11.dtd">
<!-- Creator: CorelDRAW X8 -->
<svg xmlns="http://www.w3.org/2000/svg" xml:space="preserve" width="1.12126in" height="1.37637in" version="1.1" style="shape-rendering:geometricPrecision; text-rendering:geometricPrecision; image-rendering:optimizeQuality; fill-rule:evenodd; clip-rule:evenodd"
viewBox="0 0 201 247"
 xmlns:xlink="http://www.w3.org/1999/xlink">
 <defs>
  <style type="text/css">
   <![CDATA[
    .fil0 {fill:#F38292}
    .fil1 {fill:#FCBBC4}
   ]]>
  </style>
 </defs>
 <g id="Слой_x0020_1">
  <metadata id="CorelCorpID_0Corel-Layer"/>
  <path class="fil0" d="M96 130c-16,0 -35,-3 -48,-9 -12,-6 -15,-14 -2,-22 3,-2 9,-4 10,-5 -6,1 -19,7 -24,11 -3,2 -6,6 -6,11 0,5 4,10 6,11 2,2 3,3 5,4 22,13 73,12 94,5 13,-5 25,-10 30,-19 6,-9 4,-19 -6,-24 -12,-8 -35,-10 -50,-11 -9,-1 -37,-5 -30,-17 3,-4 8,-7 14,-10 9,-5 15,-6 24,-13 6,-5 15,-12 15,-21 1,-7 -5,-12 -9,-15 -4,-2 -13,-6 -18,-6 2,1 3,2 7,4 8,6 12,15 5,22 -11,12 -46,16 -56,36 -3,7 -2,12 2,17 1,2 5,4 6,5 14,9 34,6 51,7 6,1 13,2 20,3 6,2 12,3 16,7 5,5 2,12 -2,15 -13,11 -37,14 -54,14zm-96 86l0 3c2,4 1,4 6,9 7,6 20,10 29,12 11,3 25,5 37,6 2,0 12,0 13,1l17 0c1,-1 1,-1 2,-1 10,0 22,-1 31,-3 13,-2 47,-9 50,-23 1,-6 -3,-10 -6,-12 -2,-2 -9,-6 -12,-7 2,1 4,3 5,4 9,10 -3,18 -11,21 -32,14 -92,14 -125,5 -8,-3 -29,-10 -26,-21 2,-5 5,-6 8,-9 -3,1 -9,5 -11,6 -2,1 -3,2 -4,4 -2,2 -2,4 -3,5zm201 -82l0 -6c-1,-2 0,-8 -6,-16 -2,-3 -7,-8 -14,-6 -5,1 -10,6 -12,9 -7,11 -7,25 -19,45 -3,4 -7,10 -11,13 -1,1 0,1 -3,3 -3,2 -3,3 -7,6 -23,14 -53,11 -74,-5l-4 -4c-1,-1 -1,-1 -1,-1l-4 -4c-7,-8 -13,-20 -17,-30 -1,-2 -1,-5 -2,-8 0,6 2,16 3,22 3,11 8,21 15,29 3,4 7,7 10,10l8 4c-2,1 -11,3 -16,8 -2,2 -3,5 0,8 7,9 35,11 47,11 12,0 30,-1 40,-6 12,-5 14,-11 2,-17 -2,-1 -3,-1 -4,-2 -2,0 -4,-1 -5,-1 4,-2 11,-6 14,-9 23,-21 29,-54 34,-62 9,-12 28,2 7,33 -3,4 -5,6 -9,11l-3 3c4,-1 11,-6 15,-9 7,-6 12,-13 15,-22 0,-2 1,-6 1,-7z"/>
  <path class="fil1" d="M105 111c-2,0 -4,-1 -5,-2 1,-2 5,-3 8,-4 5,-1 15,-1 20,1 4,2 3,4 0,6 -10,5 -29,5 -40,5 -7,0 -23,-1 -28,-6 -3,-2 -3,-5 0,-7 4,-3 10,-5 17,-6 3,0 6,0 10,-1 2,0 8,0 10,0 -8,-4 -55,0 -49,12 6,13 42,13 53,13 10,-1 20,-2 29,-4 4,-2 9,-3 11,-6 5,-4 2,-7 -2,-9 -10,-4 -36,-4 -42,2 -5,4 4,6 8,6zm-64 -40c-1,-6 -1,-9 2,-14 3,-6 11,-12 18,-15 12,-7 39,-14 40,-27 0,-4 -2,-10 -5,-11 0,2 1,4 0,7 -2,6 -8,9 -13,12 -14,8 -32,11 -43,24 -4,6 -7,13 -3,19 0,1 1,2 2,3 1,1 1,1 2,2z"/>
 </g>
</svg>
